<?xml version="1.0" standalone="no"?>
<!DOCTYPE svg PUBLIC "-//W3C//DTD SVG 20010904//EN"
 "http://www.w3.org/TR/2001/REC-SVG-20010904/DTD/svg10.dtd">
<svg version="1.0" xmlns="http://www.w3.org/2000/svg"
 width="160.000000pt" height="160.000000pt" viewBox="0 0 160.000000 160.000000"
 preserveAspectRatio="xMidYMid meet">
<metadata>
Created by potrace 1.11, written by Peter Selinger 2001-2013
</metadata>
<g transform="translate(0.000000,160.000000) scale(0.100000,-0.100000)"
fill="#000000" stroke="none">
<path d="M538 1555 c-2 -2 -57 -6 -123 -9 -221 -12 -320 -27 -327 -49 -2 -7
-3 -34 -2 -62 2 -47 13 -647 19 -1030 1 -93 3 -177 4 -186 3 -42 95 -100 211
-132 151 -42 250 -52 495 -52 225 1 311 9 450 42 17 4 32 7 35 8 85 17 208 91
211 128 1 7 3 109 4 227 6 386 16 934 19 993 3 51 0 60 -19 73 -12 8 -38 17
-56 19 -104 13 -131 15 -204 21 -80 6 -712 14 -717 9z"/>
</g>
</svg>
